<svg id="Слой_1" data-name="Слой 1" xmlns="http://www.w3.org/2000/svg" viewBox="0 0 622.25 618.52"><defs><style>.cls-1{fill:#0a0b0b;}.cls-2{fill:#c8dea7;}.cls-3{fill:#0b0f0a;}.cls-4{fill:#020302;}.cls-5{fill:#080c08;}.cls-6{fill:#040604;}</style></defs><path class="cls-1" d="M759.55,271.58c30.25,2.71,59.57-.39,87.71-12.1,3.68-1.53,7.35-3.13,11.12-4.45,6.94-2.43,12.72,1.42,11.69,8.63C868.3,276,866,288.27,863,300.35a216.41,216.41,0,0,1-33.51,74.18c-22.44,31.65-52.59,51.89-90,61.42-13.64,3.48-26.91,7.74-38.35,16.24-1.67,1.24-3.29,3.87-3.27,5.85q.69,108.73,1.74,217.46c0,1.48,0,3,0,4.83,2.89.37,5.49.6,8,1C739.22,687,762.79,714,764.92,747c2.09,32.32-14.92,61.21-42.71,72.47a65.09,65.09,0,0,1-28.38,4.46c-8.15-.44-16.31-.74-24.46-.75q-165.5-.12-331-.14c-10,0-20.08,1.32-29.89.1-33.12-4.12-59-32.25-60.43-65.74-.62-14.76,1-29.6,1.08-44.41q.78-163.72,1.33-327.45.18-46.5.37-93a123.59,123.59,0,0,0-.29-12.48c-3.57-35.54,23.16-67.47,59-72,14.31-1.79,28.87-2,43.32-2q157.72-.54,315.45-.56a294.07,294.07,0,0,1,40.32,2.91c24.39,3.38,44.85,24.36,49.29,49.45C758.76,262.28,759,266.78,759.55,271.58ZM519.3,344.84H514q-92.49.07-185,.12a82.56,82.56,0,0,1-9.37-.93c-4.52-.51-7.38-2.95-8-7.51a8.31,8.31,0,0,1,5.36-9.15A148.85,148.85,0,0,1,335.26,321c30.6-8.18,46.8-40.91,33.47-68-12-24.26-41.75-35.25-68.07-25.54-20.21,7.46-34,28-32.92,45.87.95,15.6.05,31.31,0,47q-.37,106.5-.78,213c-.38,70.65-1,141.3-1.48,212,0,6.47-.76,13.24.79,19.38,8.29,32.87,37.07,50.14,69,38.35,38.55-14.26,47.47-68.85,14.81-97.13-7.31-6.33-15.4-10.3-25.42-9a24,24,0,0,1-5.49,0c-4.15-.4-8-4.3-8.14-8.06-.16-4.29,2.27-7.12,7.4-7.74a130.58,130.58,0,0,1,15.92-1.08c14,0,28,.48,42,.53q150.74.55,301.47,1.1c4.27,0,5.25-1.35,5.2-5.41q-1.11-102.24-2-204.47c0-1.18-.24-2.35-.5-4.73-6.49,7.4-12,14-17.92,20.35-13.59,14.61-26.48,30-41.24,43.37-28.93,26.16-61.76,28.55-96.53,12.28-1.56-.73-3.15-1.37-4.76-2.07a8.46,8.46,0,0,0-.79,1.83c-1.43,16.21-2.91,32.4-4.21,48.62-.34,4.35-1.34,8.31-5.09,10.83-16.54,11.11-33.07,22.22-49.82,33-2.16,1.38-5.61,1.21-8.41,1-3.22-.21-6.37-1.82-9.55-1.85-31-.28-62-.33-93-.52a21.51,21.51,0,0,1-7.3-1.09c-3.65-1.37-5.39-4.36-4.82-8.33a7.12,7.12,0,0,1,6.53-6.5,77,77,0,0,1,10-.4q47.25.15,94.49.36a18.68,18.68,0,0,0,2.28-.21,4.7,4.7,0,0,0,.58-1.07c7.58-36.15,20.89-70,41.15-101,1.06-1.61,1-4.72.25-6.64-9.61-24-13.67-48.68-10.37-74.51,3.08-24.12,10.3-46.79,22.78-67.68C509.08,359.59,514.12,352.63,519.3,344.84ZM696,432.67c-7-6-13.34-11.35-19.56-16.86C670.9,410.9,670,404.64,674,400c3.81-4.53,9.79-4.81,15.68-.56,6.22,4.48,13.08,8.39,18.3,13.85,7.53,7.87,15,7.39,24.79,4.88,37.93-9.7,66.87-30.85,87.64-63.95,14.94-23.8,23.07-50,29.75-76.93a6.05,6.05,0,0,0-.19-1.86c-1.08.3-1.91.45-2.68.75-20.56,7.85-42.12,11.38-63.85,12.79-18.57,1.2-37.3.48-55.94.06-5.69-.12-9.05,1.52-12,6.42a182.17,182.17,0,0,1-15,21.78,12.68,12.68,0,0,1-9.36,4c-2.55-.17-6.16-3.3-7-5.85-.88-2.83.12-6.92,1.67-9.7C689,300,693,295,697,289.18c-1.41-.16-2.17-.3-2.93-.31-14.16-.2-28.33-.27-42.48-.65-5-.14-7.45,1.24-9,6.57-3.71,12.93-8.37,25.61-12.83,38.32-1.94,5.56-6.79,8.18-11.71,6.84-4.73-1.3-7.42-5.94-6.42-11.44a46.08,46.08,0,0,1,2-7.2c3.11-8.72,6.31-17.4,9.65-26.6a28.87,28.87,0,0,0-3.12.59c-29.1,9.15-53.72,25.44-74.81,47.25a8.34,8.34,0,0,0-2,5.7c.53,8.64,1.46,17.26,2.28,25.88.58,6,1.4,11.92,1.77,17.9.3,4.85-2.67,8.41-6.89,9s-7.82-2.06-9.06-6.79a27.12,27.12,0,0,1-.59-3.94q-1.44-12.78-2.85-25.56c-27,39.68-37.88,82-22.72,129.54,8.13-10.21,16.1-19.57,23.36-29.46,33.42-45.53,76.91-78.57,127.41-102.81,35.71-17.14,73.52-28.4,111.68-38.53a13.53,13.53,0,0,1,4-.47c4.52.14,7.63,2.34,8.68,6.81,1,4.26-.71,7.64-4.46,9.64-2.3,1.23-5,1.79-7.51,2.59-25.21,8-50.75,15.08-75.54,24.2-53.42,19.66-99.84,50.12-137.56,93.14-12.88,14.69-21.37,32.09-29.09,49.76-4.62,10.57-3.44,12,7,16.77,1.21.55,2.41,1.14,3.64,1.64,23.73,9.57,46.52,9.53,67.33-7.23,7-5.62,13.41-11.95,20-18A11.84,11.84,0,0,0,625.9,500c-11.92-3.64-23.58-7-35.11-10.79-5.61-1.84-8.1-6.9-6.53-11.76s6.51-7.15,12.2-5.72c.64.17,1.29.33,1.93.51,12.83,3.55,25.67,7,38.46,10.7,2.76.79,4.47.41,6.38-1.9C658.41,462.52,674.46,445,696,432.67ZM362,806h6.48q123.48,0,247,.09c13,0,25.95.34,38.93.43,11.47.08,23-.44,34.42.15,12.34.64,24.14,0,34.93-6.9,24.11-15.5,31.87-50.33,16.56-76.42-9.8-16.7-24.18-26-44.13-25.58-13,.26-26,.28-39,.23q-143.7-.48-287.42-1c-1.37,0-2.73.19-4.67.33,14.65,15.88,21.66,33.9,21.13,54.87S377.47,790.58,362,806Zm-1.29-477.55h6.82c50.15-.14,100.3-.63,150.45-.15,11.49.11,21-1.41,28.32-10.85,1.29-1.68,3.24-2.85,4.92-4.21,31.86-25.91,67.66-41.37,109.33-41.26q38,.11,76,.17h5.21c1.66-17.93-8.29-39-31.74-45.14-19.78-5.19-40.22-4-60.3-4.66-33.6-1.17-67.29.07-100.94.18q-89,.28-177.95.43H366C405,258.75,391,307.37,360.72,328.48ZM469.07,609.87c9.65-6.56,18.62-12.57,27.45-18.78a6.17,6.17,0,0,0,2.16-4c1.84-17.33,3.55-34.69,5.24-52,.16-1.63,0-3.29,0-4.94C486.84,554.21,476.25,580.8,469.07,609.87Z" transform="translate(-247.94 -205.52)"/><path class="cls-2" d="M519.3,344.84c-5.18,7.79-10.22,14.75-14.61,22.09-12.48,20.89-19.7,43.56-22.78,67.68-3.3,25.83.76,50.51,10.37,74.51.77,1.92.81,5-.25,6.64-20.26,31-33.57,64.81-41.15,101a4.7,4.7,0,0,1-.58,1.07A18.68,18.68,0,0,1,448,618q-47.24-.16-94.49-.36a77,77,0,0,0-10,.4,7.12,7.12,0,0,0-6.53,6.5c-.57,4,1.17,7,4.82,8.33a21.51,21.51,0,0,0,7.3,1.09c31,.19,62,.24,93,.52,3.18,0,6.33,1.64,9.55,1.85,2.8.19,6.25.36,8.41-1,16.75-10.77,33.28-21.88,49.82-33,3.75-2.52,4.75-6.48,5.09-10.83,1.3-16.22,2.78-32.41,4.21-48.62A8.46,8.46,0,0,1,520,541c1.61.7,3.2,1.34,4.76,2.07,34.77,16.27,67.6,13.88,96.53-12.28,14.76-13.34,27.65-28.76,41.24-43.37,5.89-6.32,11.43-12.95,17.92-20.35.26,2.38.49,3.55.5,4.73q1,102.24,2,204.47c0,4.06-.93,5.43-5.2,5.41q-150.74-.66-301.47-1.1c-14,0-28-.5-42-.53a130.58,130.58,0,0,0-15.92,1.08c-5.13.62-7.56,3.45-7.4,7.74.14,3.76,4,7.66,8.14,8.06a24,24,0,0,0,5.49,0c10-1.34,18.11,2.63,25.42,9,32.66,28.28,23.74,82.87-14.81,97.13-31.89,11.79-60.67-5.48-69-38.35-1.55-6.14-.83-12.91-.79-19.38.46-70.66,1.1-141.31,1.48-212q.57-106.49.78-213c.06-15.66,1-31.37,0-47-1.09-17.91,12.71-38.41,32.92-45.87,26.32-9.71,56.12,1.28,68.07,25.54,13.33,27-2.87,59.77-33.47,68a148.85,148.85,0,0,0-18.19,6.33,8.31,8.31,0,0,0-5.36,9.15c.59,4.56,3.45,7,8,7.51a82.56,82.56,0,0,0,9.37.93q92.49,0,185-.12ZM391.51,410.06V410c-16.31,0-32.63-.05-48.94,0-6.85,0-10.58,3.89-9.72,9.64.7,4.68,4,6.64,11.66,6.69q46.44.27,92.88.44a28.68,28.68,0,0,0,6.9-.82c4.08-1,6-3.79,5.9-8-.18-4.89-4-7.84-10.74-7.87C423.47,410,407.49,410.06,391.51,410.06Zm-1,67c16.82,0,33.64,0,50.46,0,6.11,0,10-3.26,10-8.06s-4.12-8-10.12-8q-49.71,0-99.41,0c-6,0-10.15,3.23-10.28,7.85-.14,4.83,4,8.18,10.4,8.2C357.84,477.09,374.16,477.06,390.47,477.06Zm-1.9,53v.55c4.32,0,8.65,0,13,0,11,.07,22,.2,32.93.21,7.33,0,11.44-3,11.56-8.13.12-5.47-3.88-8.45-11.6-8.62h-1q-44.91-.06-89.82-.09c-6.3,0-10.35,3.39-10.2,8.37.15,4.73,4,7.69,10.26,7.71C358.64,530.14,373.6,530.1,388.57,530.1Zm-2.32,54.56v-.61h11.47c10,0,20,.07,29.94-.09,5.14-.08,9-3.67,9.17-8s-3.62-7.76-8.94-8.06c-.83,0-1.67-.07-2.5-.07q-39.66.1-79.32.26a20.9,20.9,0,0,0-6.33,1c-3.57,1.16-5.28,3.9-5.08,7.64.21,4,2.38,6.53,6.26,7.26a44.55,44.55,0,0,0,7.92.64C361.31,584.7,373.78,584.66,386.25,584.66Z" transform="translate(-247.94 -205.52)"/><path class="cls-2" d="M362,806c15.46-15.45,23.66-32.93,24.19-53.82s-6.48-39-21.13-54.87c1.94-.14,3.3-.33,4.67-.33q143.72.51,287.42,1c13,.05,26,0,39-.23,20-.4,34.33,8.88,44.13,25.58,15.31,26.09,7.55,60.92-16.56,76.42-10.79,6.94-22.59,7.54-34.93,6.9-11.45-.59-22.95-.07-34.42-.15-13-.09-26-.42-38.93-.43Q492,806,368.49,806Z" transform="translate(-247.94 -205.52)"/><path class="cls-2" d="M360.72,328.48C391,307.37,405,258.75,366,223h4.77q89-.21,178-.43c33.65-.11,67.34-1.35,100.94-.18,20.08.7,40.52-.53,60.3,4.66,23.45,6.14,33.4,27.21,31.74,45.14h-5.21q-38-.07-76-.17c-41.67-.11-77.47,15.35-109.33,41.26-1.68,1.36-3.63,2.53-4.92,4.21-7.28,9.44-16.83,11-28.32,10.85-50.15-.48-100.3,0-150.45.15Z" transform="translate(-247.94 -205.52)"/><path class="cls-3" d="M391.51,410.06c16,0,32-.05,47.94,0,6.71,0,10.56,3,10.74,7.87.15,4.23-1.82,7-5.9,8a28.68,28.68,0,0,1-6.9.82q-46.44-.15-92.88-.44c-7.68-.05-11-2-11.66-6.69-.86-5.75,2.87-9.6,9.72-9.64,16.31-.08,32.63,0,48.94,0Z" transform="translate(-247.94 -205.52)"/><path class="cls-4" d="M390.47,477.06c-16.31,0-32.63,0-49,0-6.38,0-10.54-3.37-10.4-8.2.13-4.62,4.28-7.84,10.28-7.85q49.71,0,99.41,0c6,0,10.11,3.31,10.12,8s-3.89,8-10,8.06C424.11,477.09,407.29,477.06,390.47,477.06Z" transform="translate(-247.94 -205.52)"/><path class="cls-5" d="M388.57,530.1c-15,0-29.93,0-44.9,0-6.3,0-10.11-3-10.26-7.71-.15-5,3.9-8.38,10.2-8.37q44.91,0,89.82.09h1c7.72.17,11.72,3.15,11.6,8.62-.12,5.17-4.23,8.14-11.56,8.13-11,0-22-.14-32.93-.21-4.32,0-8.65,0-13,0Z" transform="translate(-247.94 -205.52)"/><path class="cls-6" d="M386.25,584.66c-12.47,0-24.94,0-37.41,0a44.55,44.55,0,0,1-7.92-.64c-3.88-.73-6.05-3.28-6.26-7.26-.2-3.74,1.51-6.48,5.08-7.64a20.9,20.9,0,0,1,6.33-1q39.66-.21,79.32-.26c.83,0,1.67,0,2.5.07,5.32.3,9.08,3.69,8.94,8.06s-4,7.92-9.17,8c-10,.16-20,.08-29.94.09H386.25Z" transform="translate(-247.94 -205.52)"/></svg>