<svg id="Слой_1" data-name="Слой 1" xmlns="http://www.w3.org/2000/svg" viewBox="0 0 647.46 585.58"><defs><style>.cls-1{fill:#0b0b0d;}.cls-2{fill:#cfeaf4;}.cls-3{fill:#19181b;}</style></defs><path class="cls-1" d="M321.62,705.54c-41.26,11.74-78.87-17.39-87.69-58.39a91.23,91.23,0,0,1,.92-41.75c-34.52-13.55-54.09-38.83-55.43-75.72C178.09,493,195.64,466.48,229,450c-11.87-19.75-14.77-40.68-6-62.43,8.66-21.49,25.05-35.21,45.83-43.79,0-10.22-1.15-20.29.2-30,4.81-34.67,34.08-62.32,68.77-65.83,3.32-.34,4.71-1.17,5.31-4.82,2.26-13.88,10.66-23.75,22-31.34,25.24-16.85,64.32-16.8,89.55.22,15.33,10.34,22.76,24.28,22.47,43.43-.57,39.14.63,78.31.2,117.46-.13,12,.66,22.52,10.9,30.33,1.37,1,2.18,2.84,3.46,4.59,1.07-1.38,1.87-2.62,2.87-3.68,4.46-4.7,8.23-10.7,13.65-13.69,7.54-4.16,8.12-9.7,8-17-.4-28-.62-56-.28-84a285,285,0,0,1,2.84-37.83c4.51-30.66,31.64-53.38,63.33-53.87,32-.49,59.85,21.43,65.84,51.82.31,1.62.64,3.23,1,5.16,24.77-4.22,45.05,3.25,59.58,23.59,14.19,19.86,15.43,41.62,6.92,64.18,54.62,9.22,79.63,79.42,45.15,124.47,65.55,22.78,66.07,112.95,3.48,141.24q9.6,24.81,19.22,49.67Q803.64,710,823.88,762.1a50.49,50.49,0,0,1,2.82,11.08c.92,6.76-4.07,11.35-10.74,9.88a50.5,50.5,0,0,1-11.28-3.75Q733,744.11,661.34,708.7c-1.47-.73-3-1.37-4.7-2.17-1.11,3.1-2,5.92-3.1,8.63-14.9,36.25-58.53,52.78-96.14,36.34-22.73-9.94-36.86-27.34-43.23-51.12-.8-3-.53-6.3-.51-9.45q.36-56.74.78-113.49a8.68,8.68,0,0,0-1.17-4.82c-2.46,2.79-4.78,5.73-7.4,8.36-6.4,6.42-13.57,6.4-20.24.12-3.09-2.9-6.16-5.83-10-9.5-.15,2.91-.31,4.81-.33,6.7q-.57,52.25-1.12,104.49c-.2,19-4.36,36.45-17.76,51-32.66,35.34-97.15,31.89-124-7.09C328,720.32,325.28,712.84,321.62,705.54Zm412.59-227c4-6.37,7.13-11.43,10.32-16.47,10.94-17.27,18.1-35.51,13.42-56.41-5-22.53-17.81-38.46-40.45-45.35-5.18-1.58-10.57-2.49-15.81-3.87-5.51-1.45-6-2.52-4.42-8s3.05-10.72,4.37-16.13c2.38-9.77,3.2-19.55.38-29.45-4.83-17-19.11-31.36-36.9-32.06-8-.32-16.19.9-24.25,1.73-3.34.35-5.17,0-6-3.86-1.68-8-3.17-16.24-6.12-23.84-6.8-17.51-25-32.9-52.1-29.76-20.21,2.34-37.26,17.39-40.53,36.4-2.18,12.69-2.79,25.76-3,38.68-.46,26.48-.2,53-.24,79.48v8.55c5.82-.68,11.23-1.78,16.65-1.8a87.13,87.13,0,0,1,16.32,1.66c39.18,7.26,63.42,48.92,50.14,86-4.63,12.92-13.67,22.24-23.61,31.43-19.94,18.42-39,37.83-58.23,57a8.9,8.9,0,0,0-2.06,5.75q-.74,65-1.15,130a45.89,45.89,0,0,0,1.82,14.18c8.34,25.64,35.6,41.88,62.8,37.77,21.75-3.28,36.74-14.86,43.9-35.94,1.86-5.47,3.7-11,5.24-16.51,1-3.8,2.91-4.29,6.21-2.68,10.07,5,20.24,9.68,30.31,14.64Q740.89,729,800.5,758.43c1.23.61,2.55,1.06,4.46,1.85-1-2.77-1.76-4.74-2.52-6.71q-28.35-73.68-56.71-147.36c-2.52-6.53-1.86-8.09,4.5-11.09,1.79-.84,3.68-1.45,5.51-2.22a60.74,60.74,0,0,0,26.59-21c25.32-35.74,5.91-83.82-34.82-90.14C743.4,481.08,739.38,479.81,734.21,478.57Zm-481.91-21c-6.63,3.3-12.77,6.47-19,9.45a66,66,0,0,0-35.65,74.26c6.23,26.87,24.09,42.12,49,50.67,7.06,2.42,7.65,3.23,5.82,10.45-3.22,12.77-4.87,25.62-2.5,38.78,5.52,30.67,33,60.27,73.42,46.41,3.62-1.24,8.65-3.9,10.8-2.49,2.52,1.66,2.95,6.95,3.72,10.79,2.33,11.67,6.79,22.08,16.1,30,13.58,11.59,29.44,16.51,47,15.08,37.67-3.05,54.72-23.38,55.79-56.27,1.35-41.78,1.33-83.61,2.05-125.42a10.36,10.36,0,0,0-3.68-8.66q-30.57-27.95-60.93-56.12c-17-15.85-23.77-35.23-20.38-58.45,3.82-26.12,17.4-44.38,42-54.06,14.43-5.69,29.14-5.24,43.95.14.09-1.71.2-3,.21-4.29.08-40.81-.18-81.64.4-122.44.23-15.77-7.05-25.8-20.31-32.34A66.27,66.27,0,0,0,400,216.89c-24.66,3.74-40.82,15.45-44.13,42.58-.16,1.3-2.15,3.12-3.55,3.41-4.84,1-9.83,1.27-14.71,2.15-24.42,4.37-41,18.22-49.56,41.53-5.17,14.13-3.47,28.46-.47,42.68.72,3.43-.29,4.6-3.25,5.91a181.62,181.62,0,0,0-20.43,10.05C238.79,380.27,226,409.9,242,438.82,245.32,444.72,248.53,450.66,252.3,457.56ZM495.63,566.43c3.58-3.32,7-6.42,10.37-9.64q27.43-26.58,54.81-53.24c10.69-10.46,21.67-20.69,31.61-31.84,8.67-9.75,11.86-21.93,9.9-34.95-3.1-20.6-15.17-34.23-34.63-40.58-19.93-6.5-38.31-2.78-53.44,12.24a72.19,72.19,0,0,0-12.14,16.32c-5.4,9.82-14,9.7-19.69.72-2.23-3.5-4.75-6.81-7.23-10.14-14.26-19.13-35.88-25.39-56.49-16.37-32.56,14.25-39.53,57.29-13.22,83.05,9.51,9.31,19.81,17.81,29.53,26.91,13.83,13,27.46,26.17,41.2,39.24C482.59,554.22,489,560.22,495.63,566.43Z" transform="translate(-179.35 -197.75)"/><path class="cls-2" d="M734.21,478.57c5.17,1.24,9.19,2.51,13.3,3.15,40.73,6.32,60.14,54.4,34.82,90.14a60.74,60.74,0,0,1-26.59,21c-1.83.77-3.72,1.38-5.51,2.22-6.36,3-7,4.56-4.5,11.09q28.34,73.69,56.71,147.36c.76,2,1.48,3.94,2.52,6.71-1.91-.79-3.23-1.24-4.46-1.85q-59.64-29.37-119.27-58.76c-10.07-5-20.24-9.69-30.31-14.64-3.3-1.61-5.16-1.12-6.21,2.68-1.54,5.56-3.38,11-5.24,16.51-7.16,21.08-22.15,32.66-43.9,35.94-27.2,4.11-54.46-12.13-62.8-37.77A45.89,45.89,0,0,1,531,688.21q.36-65,1.15-130a8.9,8.9,0,0,1,2.06-5.75c19.26-19.14,38.29-38.55,58.23-57,9.94-9.19,19-18.51,23.61-31.43,13.28-37.1-11-78.76-50.14-86a87.13,87.13,0,0,0-16.32-1.66c-5.42,0-10.83,1.12-16.65,1.8v-8.55c0-26.5-.22-53,.24-79.48.23-12.92.84-26,3-38.68,3.27-19,20.32-34.06,40.53-36.4,27.11-3.14,45.3,12.25,52.1,29.76,3,7.6,4.44,15.81,6.12,23.84.8,3.83,2.63,4.21,6,3.86,8.06-.83,16.2-2.05,24.25-1.73,17.79.7,32.07,15.06,36.9,32.06,2.82,9.9,2,19.68-.38,29.45-1.32,5.41-2.85,10.77-4.37,16.13s-1.09,6.55,4.42,8c5.24,1.38,10.63,2.29,15.81,3.87,22.64,6.89,35.41,22.82,40.45,45.35,4.68,20.9-2.48,39.14-13.42,56.41C741.34,467.14,738.2,472.2,734.21,478.57Z" transform="translate(-179.35 -197.75)"/><path class="cls-2" d="M252.3,457.56c-3.77-6.9-7-12.84-10.26-18.74-16-28.92-3.25-58.55,21.82-73.62a181.62,181.62,0,0,1,20.43-10.05c3-1.31,4-2.48,3.25-5.91-3-14.22-4.7-28.55.47-42.68,8.54-23.31,25.14-37.16,49.56-41.53,4.88-.88,9.87-1.14,14.71-2.15,1.4-.29,3.39-2.11,3.55-3.41,3.31-27.13,19.47-38.84,44.13-42.58a66.27,66.27,0,0,1,40.12,6.17c13.26,6.54,20.54,16.57,20.31,32.34-.58,40.8-.32,81.63-.4,122.44,0,1.29-.12,2.58-.21,4.29-14.81-5.38-29.52-5.83-43.95-.14-24.56,9.68-38.14,27.94-42,54.06-3.39,23.22,3.38,42.6,20.38,58.45q30.3,28.25,60.93,56.12a10.36,10.36,0,0,1,3.68,8.66c-.72,41.81-.7,83.64-2.05,125.42C455.74,717.59,438.69,737.92,401,741c-17.56,1.43-33.42-3.49-47-15.08-9.31-7.93-13.77-18.34-16.1-30-.77-3.84-1.2-9.13-3.72-10.79-2.15-1.41-7.18,1.25-10.8,2.49C283,701.44,255.5,671.84,250,641.17c-2.37-13.16-.72-26,2.5-38.78,1.83-7.22,1.24-8-5.82-10.45-24.91-8.55-42.77-23.8-49-50.67A66,66,0,0,1,233.31,467C239.53,464,245.67,460.86,252.3,457.56Z" transform="translate(-179.35 -197.75)"/><path class="cls-3" d="M591.92,439.52c-.06,4.93-2.81,8.69-6,8.45-4.35-.34-5.73-3.28-5.75-7.26-.07-11.95-6.7-19.36-16.92-24.23a41.53,41.53,0,0,0-5.12-2c-2.92-.93-5.48-2.47-4.63-5.87.91-3.62,3.81-5.72,7.57-4.82a42.14,42.14,0,0,1,10.65,4.06C584.23,414.92,591.06,425.7,591.92,439.52Z" transform="translate(-179.35 -197.75)"/></svg>