<svg id="Слой_1" data-name="Слой 1" xmlns="http://www.w3.org/2000/svg" viewBox="0 0 665.72 667.77"><defs><style>.cls-1{fill:#0d0a0d;}.cls-2{fill:#f29aaa;}.cls-3{fill:#161214;}.cls-4{fill:#120e11;}</style></defs><path class="cls-1" d="M832.08,508.75c-.35,47.23-13.4,99.17-39.23,147.94a13.66,13.66,0,0,0-1.11,8.85c11.26,46.93,22.86,93.77,34.07,140.71a38.18,38.18,0,0,1,.31,15.21c-1.91,10.7-10.09,16.95-20.91,15.17-16.4-2.69-32.64-6.36-48.88-10-37.54-8.31-75-16.88-112.56-25.16a13.11,13.11,0,0,0-7.64.85c-50.58,22.53-103.66,33.28-158.7,28.27-132-12-227.19-78.3-283.27-198.74C171.67,583.61,163.36,532,167.31,479c7.1-95.2,47.5-173.89,121.16-234.65,55.8-46,120.52-70.51,192.8-74.6C644.43,160.47,790.83,272,824.82,431.37,829.7,454.25,832.13,477.42,832.08,508.75Zm-648.6-8.44a304,304,0,0,0,7.46,67.7c18.2,78.9,60.22,142,126.15,188.91C363,789.56,414.38,808,470.59,813.24a314.1,314.1,0,0,0,164.06-28.92,9.44,9.44,0,0,1,5.66-.9c28.57,6.27,57.1,12.71,85.64,19.12,24.2,5.44,48.38,11,72.61,16.3,7.48,1.64,13.2.68,10.46-10.31-.16-.64-.28-1.29-.44-1.93q-17.48-73.05-34.86-146.12a9.79,9.79,0,0,1,1.12-6.41,312.12,312.12,0,0,0,39-124.64,306.78,306.78,0,0,0-4.64-89.36c-10.78-54.39-34-102.81-70.41-144.49-56.17-64.31-127.38-100-212.21-108.44a295.1,295.1,0,0,0-89.82,5.1c-71.84,15-132.18,50.07-179.44,106.27C208.41,356.67,184.18,424.31,183.48,500.31Z" transform="translate(-166.36 -169.17)"/><path class="cls-2" d="M183.48,500.31c.7-76,24.93-143.64,73.83-201.8,47.26-56.2,107.6-91.29,179.44-106.27a295.1,295.1,0,0,1,89.82-5.1c84.83,8.46,156,44.13,212.21,108.44,36.4,41.68,59.63,90.1,70.41,144.49a306.78,306.78,0,0,1,4.64,89.36,312.12,312.12,0,0,1-39,124.64,9.79,9.79,0,0,0-1.12,6.41Q791,733.58,808.58,806.6c.16.64.28,1.29.44,1.93,2.74,11-3,12-10.46,10.31-24.23-5.31-48.41-10.86-72.61-16.3-28.54-6.41-57.07-12.85-85.64-19.12a9.44,9.44,0,0,0-5.66.9,314.1,314.1,0,0,1-164.06,28.92C414.38,808,363,789.56,317.09,756.92c-65.93-46.86-107.95-110-126.15-188.91A304,304,0,0,1,183.48,500.31ZM547.83,609.05c20,0,34.64-3.52,48.55-10.63,23.57-12,43.94-27.73,57.61-50.81a62.78,62.78,0,0,0,7.37-18.31c2.52-11.63-8-21.33-19-17.16-7.22,2.72-13.74,7.82-19.91,12.69-7.95,6.29-15,13.7-22.85,20.14-13,10.64-27.91,13.92-44.49,11.52-12.84-1.85-24.15-7.14-35.12-13.61-19.08-11.26-38.57-21.65-59.42-29.38-19.74-7.31-39.67-10.66-60.61-6.15-25.31,5.47-44.32,20.27-58.84,40.72-7.35,10.37-12.51,22.39-13.21,35.6-.4,7.33,4.34,12,11.64,12.39,9.88.47,17.25-4.9,24.87-10,9.91-6.63,19.59-13.79,30.12-19.28,23.74-12.37,47-10.94,69.29,4.43,10.28,7.08,20.89,13.7,31.48,20.31C512.69,602.41,531.4,609.21,547.83,609.05Zm2.48-116.84L563.72,491a14.44,14.44,0,0,0,2-.21c37.95-8.77,67.44-29.51,87.8-62.78a48.84,48.84,0,0,0,5.85-15.71c2.31-11.68-7.86-21-19.08-17.32a48.85,48.85,0,0,0-15,8.45c-7.64,6.14-14.53,13.2-21.9,19.7-13.07,11.52-27.8,18.56-45.82,16.66-13.79-1.45-26.25-6.37-38.07-13.47-19.75-11.86-40-22.8-61.68-30.85-17.37-6.44-35.06-9.88-53.56-7.2-19.63,2.85-36.38,11.57-50.84,25.1-15,14.07-24.87,30.85-27.86,51.36-1.14,7.78,3.66,12.93,11.59,13.34,10.22.52,17.82-5,25.65-10.3,9.3-6.3,18.34-13.19,28.29-18.26,24-12.2,47.62-11.83,70.26,4.14,8.27,5.83,17.07,10.91,25.45,16.58C506,483.23,526.63,492,550.31,492.21Z" transform="translate(-166.36 -169.17)"/><path class="cls-3" d="M547.83,609.05c-16.43.16-35.14-6.64-52.55-17.52-10.59-6.61-21.2-13.23-31.48-20.31-22.29-15.37-45.55-16.8-69.29-4.43-10.53,5.49-20.21,12.65-30.12,19.28-7.62,5.09-15,10.46-24.87,10-7.3-.35-12-5.06-11.64-12.39.7-13.21,5.86-25.23,13.21-35.6,14.52-20.45,33.53-35.25,58.84-40.72,20.94-4.51,40.87-1.16,60.61,6.15,20.85,7.73,40.34,18.12,59.42,29.38,11,6.47,22.28,11.76,35.12,13.61,16.58,2.4,31.53-.88,44.49-11.52,7.85-6.44,14.9-13.85,22.85-20.14,6.17-4.87,12.69-10,19.91-12.69,11.06-4.17,21.55,5.53,19,17.16A62.78,62.78,0,0,1,654,547.61c-13.67,23.08-34,38.76-57.61,50.81C582.47,605.53,567.81,609.08,547.83,609.05ZM339.42,581.52c7.08,2.72,11.41-1.27,15.82-4.17,9.88-6.5,19.23-13.85,29.39-19.83,23.19-13.64,47.3-16.17,72-3.79,6.09,3.06,12.12,6.3,17.93,9.86,11.21,6.88,22,14.41,33.4,21,16.25,9.47,34,14.39,52.73,11.62,38.24-5.64,66.36-26.61,86.06-59.4a21.87,21.87,0,0,0,2.79-7.43c.32-1.93.06-4.54-1.07-5.9-.66-.78-4-.31-5.37.65a151.94,151.94,0,0,0-13.36,10.37c-8.06,7-15.67,14.46-24,21.13C591,567.51,574,570.83,555.43,568.53c-15.43-1.9-28.95-8.37-42.08-16.22-22.48-13.45-45.58-25.38-71.29-31.93C397.5,509,360,531.55,343.57,569.22,341.88,573.1,340.84,577.25,339.42,581.52Z" transform="translate(-166.36 -169.17)"/><path class="cls-4" d="M550.31,492.21c-23.68-.23-44.31-9-63.53-22-8.38-5.67-17.18-10.75-25.45-16.58-22.64-16-46.29-16.34-70.26-4.14-9.95,5.07-19,12-28.29,18.26-7.83,5.31-15.43,10.82-25.65,10.3-7.93-.41-12.73-5.56-11.59-13.34,3-20.51,12.82-37.29,27.86-51.36,14.46-13.53,31.21-22.25,50.84-25.1,18.5-2.68,36.19.76,53.56,7.2,21.7,8,41.93,19,61.68,30.85,11.82,7.1,24.28,12,38.07,13.47,18,1.9,32.75-5.14,45.82-16.66,7.37-6.5,14.26-13.56,21.9-19.7a48.85,48.85,0,0,1,15-8.45c11.22-3.66,21.39,5.64,19.08,17.32A48.84,48.84,0,0,1,653.5,428c-20.36,33.27-49.85,54-87.8,62.78a14.44,14.44,0,0,1-2,.21ZM337.75,463.58c5.27,1.75,8.41.74,15.4-4.09,9.72-6.72,19.19-13.91,29.41-19.77,16.22-9.3,33.55-14.45,52.61-10.22,13.06,2.89,24.73,8.83,35.92,15.81,11.59,7.23,22.83,15,34.58,21.94a86.76,86.76,0,0,0,54.19,11.82c15.66-1.6,29.39-8.08,42.56-16.14,16.77-10.25,30.82-23.26,40.68-40.41a53.47,53.47,0,0,0,4.55-11c.45-1.49,0-4.1-1.08-4.94s-3.74-.58-5,.27a177.89,177.89,0,0,0-14.23,10.84c-8.51,7.2-16.5,15-25.3,21.86-13.56,10.51-29.26,13.62-46.21,11.93-16.35-1.62-30.66-8.23-44.5-16.58-20.26-12.22-40.89-23.71-63.9-30.19-14.25-4-28.69-6.91-43.39-4.16-33,6.17-53.83,26.53-65.25,57.39A33,33,0,0,0,337.75,463.58Z" transform="translate(-166.36 -169.17)"/></svg>