<svg id="Слой_1" data-name="Слой 1" xmlns="http://www.w3.org/2000/svg" viewBox="0 0 641.47 652.92"><defs><style>.cls-1{fill:#0d0b0b;}.cls-2{fill:#f8c454;}.cls-3{fill:#0d0b0a;}.cls-4{fill:#0c0b0b;}</style></defs><path class="cls-1" d="M183.09,473.66c5.3-109.52,60.87-209.82,177.3-271.18,128.56-67.75,289.07-35,383.71,75.27C789,330.12,815.5,390.6,822.71,459.13,837.91,603.58,758,741.49,623.18,796.81c-129.3,53.05-280,13.65-367.16-95.73C208.41,641.36,182.93,569.05,183.09,473.66Zm624.48,20.55L809,494c-2.3-19.43-3.64-39-7.09-58.25C791.25,376.27,765.2,324,723.42,280.37c-67-69.82-149.11-101.67-246-94.47a280.46,280.46,0,0,0-75.9,16.75C282.14,246.37,205,357.93,200.12,482.65a302.32,302.32,0,0,0,6.78,76.27C222.16,629.18,256.74,688,312.27,733.74c62.65,51.62,134.85,74.31,216,68.39a285.61,285.61,0,0,0,77.4-16.78C727.12,741,808.05,624.22,807.57,494.21Z" transform="translate(-183.09 -167.28)"/><path class="cls-2" d="M807.57,494.21c.48,130-80.45,246.77-202,291.14a285.61,285.61,0,0,1-77.4,16.78c-81.1,5.92-153.3-16.77-216-68.39C256.74,688,222.16,629.18,206.9,558.92a302.32,302.32,0,0,1-6.78-76.27c4.88-124.72,82-236.28,201.44-280a280.46,280.46,0,0,1,75.9-16.75c96.85-7.2,179,24.65,246,94.47,41.78,43.58,67.83,95.9,78.49,155.42C805.36,455,806.7,474.61,809,494ZM514.51,443.29c-1.3-2-2.35-3.44-3.29-5q-37.91-62-75.79-124.09c-2.39-3.92-5.1-7.08-10.25-6.33s-6.45,4.56-7.48,8.77c-3.67,14.93-7.4,29.84-11.09,44.76q-30.47,123.24-60.92,246.49c-2,8.05,1.84,13.12,10,13.12,10.83,0,21.66,0,32.48-.24q99.69-1.86,199.36-3.81c23.15-.44,46.3-.74,69.45-1.22,12.95-.26,16.23-4.56,13-16.84q-32.64-122.65-65.34-245.31c-2.59-9.75-5.06-19.53-7.77-29.25-1-3.61-2.81-6.8-7.09-7.47-4.58-.73-7.68,1.33-9.84,5.17-.65,1.16-1.3,2.32-1.93,3.49l-38,70.5C531.58,411.65,523.17,427.23,514.51,443.29Zm186,13.8c-12,4.6-22.83,8.67-33.57,12.85-6.36,2.47-7.94,4.84-8,11.65q0,15.26.12,30.49a26.76,26.76,0,0,0,.72,5.41c1,4.57,3.9,7,8.55,6.5,3.9-.45,8-1,11.52-2.55,15.83-7.16,31.52-14.63,47.19-22.14,13.13-6.3,26.15-12.84,39.26-19.19,6.59-3.19,9.47-8.21,8.95-15.57a106.81,106.81,0,0,1-.14-18c.85-8.59-3.26-13.22-10.5-16.6-15.31-7.16-30.47-14.64-45.68-22-12.38-6-24.84-11.79-37.08-18-8.67-4.41-19-.07-18.09,11.33.67,8.76,0,17.65-.5,26.46-.42,8.38,3.19,14,10.67,17.34C682.41,448.88,690.82,452.69,700.53,457.09ZM316.4,455.87c11.54-4.34,21.74-8.14,31.9-12,8.31-3.15,9.71-5.2,9.72-14,0-7.83,0-15.67-.09-23.5a61.27,61.27,0,0,0-.72-10.41c-1-5.27-3.82-7.44-9.17-6.89a35.64,35.64,0,0,0-11,2.54c-15.82,7.18-31.52,14.64-47.19,22.15-13.28,6.37-26.48,12.93-39.69,19.45-5.92,2.92-8.83,7.54-8.46,14.34.34,6.32.74,12.71.13,19-.85,8.64,3.39,13.15,10.57,16.55,20.22,9.57,40.3,19.4,60.44,29.14,7.9,3.82,15.77,7.72,23.71,11.45,7.46,3.51,17.17-.73,16.61-11-.49-9.13.1-18.32.54-27.47.4-8.38-3.24-13.95-10.73-17.31C334.54,464.12,326.15,460.29,316.4,455.87Z" transform="translate(-183.09 -167.28)"/><path class="cls-3" d="M514.51,443.29c8.66-16.06,17.07-31.64,25.47-47.23l38-70.5c.63-1.17,1.28-2.33,1.93-3.49,2.16-3.84,5.26-5.9,9.84-5.17,4.28.67,6.09,3.86,7.09,7.47,2.71,9.72,5.18,19.5,7.77,29.25q32.67,122.65,65.34,245.31c3.27,12.28,0,16.58-13,16.84-23.15.48-46.3.78-69.45,1.22q-99.68,1.89-199.36,3.81c-10.82.21-21.65.25-32.48.24-8.14,0-12-5.07-10-13.12q30.45-123.24,60.92-246.49c3.69-14.92,7.42-29.83,11.09-44.76,1-4.21,2.45-8,7.48-8.77s7.86,2.41,10.25,6.33q37.86,62.07,75.79,124.09C512.16,439.85,513.21,441.32,514.51,443.29ZM364,604.18l288.31-5.42C630,515,607.85,431.86,585.41,347.52c-1.56,2.84-2.58,4.69-3.58,6.55q-22.38,41.55-44.76,83.11c-4.58,8.5-9,17.1-13.86,25.44-4.08,7-11.46,7.21-16.33.81-1-1.33-1.85-2.77-2.72-4.19q-30.72-50.33-61.43-100.64c-4.05-6.62-8.15-13.21-12.87-20.85C407.77,427.05,386,515.18,364,604.18Z" transform="translate(-183.09 -167.28)"/><path class="cls-1" d="M700.53,457.09c-9.71-4.4-18.12-8.21-26.54-12-7.48-3.37-11.09-9-10.67-17.34.46-8.81,1.17-17.7.5-26.46-.88-11.4,9.42-15.74,18.09-11.33,12.24,6.23,24.7,12,37.08,18,15.21,7.36,30.37,14.84,45.68,22,7.24,3.38,11.35,8,10.5,16.6a106.81,106.81,0,0,0,.14,18c.52,7.36-2.36,12.38-8.95,15.57-13.11,6.35-26.13,12.89-39.26,19.19-15.67,7.51-31.36,15-47.19,22.14-3.52,1.59-7.62,2.1-11.52,2.55-4.65.54-7.56-1.93-8.55-6.5a26.76,26.76,0,0,1-.72-5.41q-.15-15.24-.12-30.49c0-6.81,1.6-9.18,8-11.65C677.7,465.76,688.48,461.69,700.53,457.09Zm-24.67,48.17c23.49-11.34,46.1-22.22,68.69-33.15,4.61-2.23,11-3.53,13.22-7.25s.34-10,.59-15.15c.15-3.18-1.21-4.61-4-5.93C731,432.6,707.63,421.24,684.25,410c-1-.46-2-.71-3.89-1.34,0,5.91.21,11.23-.08,16.53-.17,3.13.78,4.75,3.72,6,10.55,4.52,21,9.24,31.45,14.05,8.24,3.8,16.37,7.84,25.35,12.15-4.53,2.12-8.07,3.93-11.72,5.45-16.72,6.9-33.49,13.66-50.16,20.68a5.86,5.86,0,0,0-2.92,4.18C675.66,493.29,675.86,499,675.86,505.26Z" transform="translate(-183.09 -167.28)"/><path class="cls-4" d="M316.4,455.87c9.75,4.42,18.14,8.25,26.56,12,7.49,3.36,11.13,8.93,10.73,17.31-.44,9.15-1,18.34-.54,27.47.56,10.24-9.15,14.48-16.61,11-7.94-3.73-15.81-7.63-23.71-11.45-20.14-9.74-40.22-19.57-60.44-29.14-7.18-3.4-11.42-7.91-10.57-16.55.61-6.27.21-12.66-.13-19-.37-6.8,2.54-11.42,8.46-14.34,13.21-6.52,26.41-13.08,39.69-19.45,15.67-7.51,31.37-15,47.19-22.15A35.64,35.64,0,0,1,348,389c5.35-.55,8.18,1.62,9.17,6.89a61.27,61.27,0,0,1,.72,10.41c.12,7.83.1,15.67.09,23.5,0,8.82-1.41,10.87-9.72,14C338.14,447.73,327.94,451.53,316.4,455.87Zm20.23,48.95c0-6.29-.23-11.73.09-17.14.2-3.26-1.07-4.67-3.9-5.89Q317,475,301.39,467.73c-8.18-3.77-16.24-7.78-24.93-12,1.59-.88,2.29-1.36,3-1.68,19.12-8,38.26-16,57.32-24.1,1.68-.72,4-2.42,4.12-3.82.46-5.91.19-11.87.19-17.8-.86,0-1.23-.17-1.48-.05-22.46,10.87-44.56,22.56-67.5,32.29C261,445.34,256.32,451.15,258.54,463c.58,3.13,1.23,4.89,4.22,6.31,21,10,42,20.23,62.93,30.37C329,501.25,332.24,502.76,336.63,504.82Z" transform="translate(-183.09 -167.28)"/></svg>