<svg id="Слой_1" data-name="Слой 1" xmlns="http://www.w3.org/2000/svg" viewBox="0 0 971.77 992.43"><defs><style>.cls-1{fill:#0e0e10;}.cls-2{fill:#c8dea7;}.cls-3{fill:#0f1010;}.cls-4{fill:#fcfcfc;}.cls-5{fill:#f9f8f9;}.cls-6{fill:#f8f8f8;}.cls-7{fill:#f9f9f9;}.cls-8{fill:#f7f6f7;}.cls-9{fill:#f7f7f7;}.cls-10{fill:#f8f7f8;}.cls-11{fill:#f5f5f5;}.cls-12{fill:#f6f6f6;}.cls-13{fill:#f6f5f6;}.cls-14{fill:#f5f4f5;}.cls-15{fill:#f3f2f3;}.cls-16{fill:#f5f4f4;}.cls-17{fill:#eeeded;}.cls-18{fill:#c2d5a8;}.cls-19{fill:#c1d4a7;}</style></defs><path class="cls-1" d="M494,6.38c63.17,0,117.16,7.92,168.69,27.38,57.86,21.85,112.08,51,158.16,92.88,31.91,29,61.65,60.42,84.94,97,19.13,30.07,36.65,61.12,49.42,94.6C990.57,411,999.47,506,979.94,603.55c-6.71,33.56-17.44,65.69-30.34,97.3-14.28,35-34,66.74-55.56,97.64-25.45,36.54-57,66.87-91.28,94.89-67.28,55.07-145,85.21-230.07,99.44-41.84,7-83.57,8.11-125.09,2-85.22-12.47-164.46-41.41-233.07-94.73-35-27.17-67.46-57.45-93.72-93.53C99.13,776.79,79,745.93,64,712.12c-24.45-55-40-112.31-44.29-172.49-5.22-73.18,4.56-144.18,29.93-213.14,11.57-31.47,26.91-60.87,44-89.61,23-38.69,52.6-71.58,84.91-102.55,44.82-43,97.63-72.35,154.58-95.84C387.38,16.1,444,7.8,494,6.38ZM967.66,503.9c-2-22.42-3.42-44.91-6-67.27-4.85-42.25-17.45-82.49-33.34-121.75-13-32-30.65-61.54-50.25-89.69-30.6-43.94-69-80.6-112.43-111.73C706.48,71,639.24,47.83,568.3,34.72c-16.83-3.11-34.22-4-51.39-4.37-28.95-.63-57.71.51-86.43,6.44-33,6.81-65.66,14.39-96.87,27.1-43.18,17.57-83.5,39.91-119.11,70.6-33.69,29-64.92,60-89.43,97.45-19.89,30.41-37.49,61.78-50.69,95.79a481.63,481.63,0,0,0-32.62,167.9c-.48,30.21,2.46,60.21,7.52,90.13,7.37,43.58,21.71,84.76,40,124.64,16.17,35.24,38.35,66.89,62.44,97,30,37.62,67.18,67.74,106.88,94.4,18.59,12.48,39.05,22.49,59.48,31.87,58.44,26.83,120.23,39.61,184.4,40a443.45,443.45,0,0,0,131.27-18.62c45.73-13.79,88.8-32.69,127.83-60.72,38.8-27.87,74.81-58.39,103.6-96.94,22-29.51,42.31-59.88,57.29-93.76,14.21-32.13,26.09-64.87,33.3-99.29A575.57,575.57,0,0,0,967.66,503.9Z" transform="translate(-18.31 -6.38)"/><path class="cls-2" d="M967.66,503.9a575.57,575.57,0,0,1-11.88,100.45c-7.21,34.42-19.09,67.16-33.3,99.29-15,33.88-35.25,64.25-57.29,93.76-28.79,38.55-64.8,69.07-103.6,96.94-39,28-82.1,46.93-127.83,60.72a443.45,443.45,0,0,1-131.27,18.62c-64.17-.36-126-13.14-184.4-40-20.43-9.38-40.89-19.39-59.48-31.87-39.7-26.66-76.84-56.78-106.88-94.4-24.09-30.15-46.27-61.8-62.44-97-18.3-39.88-32.64-81.06-40-124.64-5.06-29.92-8-59.92-7.52-90.13a481.63,481.63,0,0,1,32.62-167.9c13.2-34,30.8-65.38,50.69-95.79,24.51-37.47,55.74-68.41,89.43-97.45,35.61-30.69,75.93-53,119.11-70.6,31.21-12.71,63.87-20.29,96.87-27.1,28.72-5.93,57.48-7.07,86.43-6.44,17.17.37,34.56,1.26,51.39,4.37C639.24,47.83,706.48,71,765.65,113.46c43.39,31.13,81.83,67.79,112.43,111.73,19.6,28.15,37.3,57.7,50.25,89.69,15.89,39.26,28.49,79.5,33.34,121.75C964.24,459,965.7,481.48,967.66,503.9ZM275.38,385.29h-2.06c0,20.76-.3,41.54.17,62.3.15,6.65-2.31,10-8.05,12.52-15.12,6.67-25.81,18.16-33.1,32.73-6,12-7,24.42-1.79,37.15,1.34,3.32,1.78,7,2.52,10.58,1,4.94,1,10.39,3.1,14.78,10.6,21.9,25,40.33,48.41,50a11.77,11.77,0,0,1,5.91,6.61c11.67,37,31.24,69.8,55.63,99.51,25.82,31.47,58.25,54.93,94.92,72.58,13.34,6.42,26.45,13.34,39.67,20,9.23,4.65,18.61,7.14,28.67,2.28,5.13-2.48,10.34-4.88,15.69-6.84,54.59-20,100.25-51.9,134.35-99.63,20-27.92,36.6-57.38,45.06-90.92,2.86-11.31,6.36-22,16.74-29.12,2.93-2,4.47-5.93,7.06-8.57,3.12-3.19,6.22-6.91,10.11-8.74,19.16-9,32.08-23.58,39.74-43,8.75-22.16,2.29-40.09-18.88-50.71a41.1,41.1,0,0,1-16.31-14.33c-3.46-5.12-7.75-10.66-13-13.33-9.68-4.9-9.62-12.25-9.42-21.21.83-37.09,1-74.19,1.63-111.28.09-5.31-2.12-8.08-6.77-10-11.63-4.82-23-10.43-34.74-14.82-94.62-35.27-191.11-40-289.1-16.76a434.82,434.82,0,0,0-108.06,41.69c-5.74,3.13-8.46,6.56-8.28,13.58C275.73,343.32,275.38,364.31,275.38,385.29Z" transform="translate(-18.31 -6.38)"/><path class="cls-3" d="M275.38,385.29c0-21,.35-42-.2-62.94-.18-7,2.54-10.45,8.28-13.58a434.82,434.82,0,0,1,108.06-41.69c98-23.24,194.48-18.51,289.1,16.76,11.78,4.39,23.11,10,34.74,14.82,4.65,1.92,6.86,4.69,6.77,10-.63,37.09-.8,74.19-1.63,111.28-.2,9-.26,16.31,9.42,21.21,5.27,2.67,9.56,8.21,13,13.33a41.1,41.1,0,0,0,16.31,14.33c21.17,10.62,27.63,28.55,18.88,50.71-7.66,19.42-20.58,34-39.74,43-3.89,1.83-7,5.55-10.11,8.74-2.59,2.64-4.13,6.56-7.06,8.57-10.38,7.11-13.88,17.81-16.74,29.12-8.46,33.54-25.1,63-45.06,90.92-34.1,47.73-79.76,79.63-134.35,99.63-5.35,2-10.56,4.36-15.69,6.84-10.06,4.86-19.44,2.37-28.67-2.28-13.22-6.67-26.33-13.59-39.67-20-36.67-17.65-69.1-41.11-94.92-72.58-24.39-29.71-44-62.47-55.63-99.51a11.77,11.77,0,0,0-5.91-6.61c-23.46-9.66-37.81-28.09-48.41-50-2.13-4.39-2.07-9.84-3.1-14.78-.74-3.55-1.18-7.26-2.52-10.58-5.16-12.73-4.2-25.17,1.79-37.15,7.29-14.57,18-26.06,33.1-32.73,5.74-2.53,8.2-5.87,8.05-12.52-.47-20.76-.17-41.54-.17-62.3Zm267,168c12.24-8.72,24.46-14.84,38.2-15.79,13.9-1,27.91-.15,41.88-.29a24.82,24.82,0,0,0,8-1.32c11.16-4,22.06-8.77,33.42-12,5.11-1.46,7-4.21,9-8.31,3.83-7.59,8.48-14.77,12.46-22.29,2-3.69,4.42-7.73,4.53-11.67,1.33-46,2.25-91.95,3.29-137.93.53-23.37.56-23.42-21.5-31.65C583,279,492.45,274.08,400.42,295.52c-31.81,7.41-62.55,17.92-91,34.36-3.43,2-5,3.89-5,8.05-.3,28.71-.89,57.42-1.43,86.13-.47,24.27-1.08,48.54-1.42,72.81-.06,4.16-.73,8.28,4.38,11.43,9.39,5.79,19.34,11.62,26.65,19.63,12,13.16,25.66,22.12,42.95,26.16,4.64,1.08,8,2.23,12.56-1.19s10.72-5.61,16.47-7.22c14.32-4,28.94-4.06,44-.92,2.79-10,5.37-19.68,8.17-29.24,1.36-4.65.12-7.32-4.16-10.1-29.84-19.41-42.82-56.17-26.58-93,12.76-28.91,44.11-46.2,76.67-43.16,30.74,2.87,59.62,24.33,67.22,58.2,6.84,30.5-5.29,60.62-33.07,79.25-1.91,1.28-3.82,4.86-3.41,6.91C536,526.61,539.2,539.45,542.42,553.29Zm-221.88,54.6a57.23,57.23,0,0,0,1.66,6.3c14.43,38.48,37.71,71.2,67,99.54,31,30,69.26,47.8,109.46,61.8a11.91,11.91,0,0,0,7.38-.33c44.65-16.18,84.89-38.77,116.09-75.94,21.25-25.32,38.55-52.63,50.23-83.51a62.2,62.2,0,0,0,1.67-6.09c-7.86.68-15.1,1.15-22.28,2a20.47,20.47,0,0,0-8.33,2.55A108.31,108.31,0,0,1,594.94,631c-11.14,1.06-22.48.2-33.67.2,3.3,19.26-.13,23.39-20.2,23.36-34.78-.06-69.56-.06-104.33-.54-3.94,0-7.95-2.78-11.71-4.7-2.91-1.48-5.23-4.35-8.23-5.37-15.41-5.23-30-11.65-40.55-24.79-1-1.19-3.08-1.77-4.75-2-10.67-1.73-21.5-2.69-30.76-9.3C334.37,603.29,327.64,602.61,320.54,607.89ZM496,593.31c-7.51.88-14.42,2.58-20.07,8.11-4.72,4.63-9.16,10.35-14.92,13-18.08,8.34-35.66,4.17-52.4-4.9-10.75-5.83-21.34-11.94-33.07-18.53,1.47,12.61,3.69,23.51,13.95,30.77,23.58,16.68,49.13,21.86,76.61,11.54C483.31,626.82,495.73,612.78,496,593.31Zm220.79-55.16c0-.76-.08-1.51-.13-2.26-2.18-1.12-4.26-2.58-6.58-3.31-23.48-7.39-46.37-5.16-68.6,4.87-10.76,4.86-20.27,11.49-26.92,21.53-6.83,10.32-6.21,22.53,2.67,33.85,4.65-6.14,9-11.94,13.39-17.68,1.81-2.35,3.39-5.09,5.71-6.78,16.45-12,35-19,54.9-23C699.83,543.66,708.23,540.61,716.74,538.15ZM570.49,600.74c.3-10-.91-13.12-7.23-17.8-21.45-15.86-46.17-19.84-72-18.57a45.69,45.69,0,0,0-29.21,11.94c-9.61,8.85-9.95,17.92-.85,28.1,2.24-1.54,4.57-3,6.78-4.7s4.09-3.85,6.46-5.18c25.7-14.43,51.69-14.37,78-1.43C558,595.85,563.89,598,570.49,600.74Zm-34.76-8.13-1.45,1.85c5.74,13.46,14.57,24.39,29.26,28.11,29.16,7.38,55.85,1.18,78.68-18.36,11.29-9.66,13.92-22.86,10.38-37.79-6.93,2.84-12.24,5.82-14.8,13.17-3.37,9.66-10.9,16.23-20,20.62-22.45,10.86-44.93,10.44-67.27-.56C545.65,597.23,540.67,595,535.73,592.61Zm143.9-38.17c6.87,6.26,14.08,9.23,22.81,9.34,27.82.37,64.58-19.41,70.72-58.46,2.22-14.16-4.58-25.77-18.49-31.5a4,4,0,0,0-.27,1.31c.17,1.14.59,2.26.67,3.41,1.5,19.57.14,38.05-16.72,51.92a87.81,87.81,0,0,1-31.9,16.61C697.74,549.59,689,551.89,679.63,554.44ZM412.2,601.26c-1.27-13.4-5.4-20.83-14.31-26.92a132.79,132.79,0,0,0-53.55-21.06c-9-1.49-18.65-.59-27.7,1-11.88,2-15.4,10.08-10.59,22.88,6.11-1,12.45-2.1,18.84-3,6.85-.92,13.83-2.69,20.6-2.17,17.32,1.31,32.65,8.72,47.3,17.62C398.92,593.35,405.1,597,412.2,601.26Zm-66.46-19.07c-.37-.82-.74-1.64-1.1-2.47-8.19,1.26-16.36,2.66-24.57,3.72-4.58.6-9.3,1.22-13.86.8-20.27-1.85-33.75-14.3-45.31-29.65-1.6-2.13-3.59-4.36-5.9-5.47-4.73-2.25-9.81-3.76-14.77-5.59a2.63,2.63,0,0,0-.1,1.42c10,26.06,26.18,46.6,53.82,54.6,16.83,4.87,32.59-1.15,46.55-11.22C342.62,586.8,344,584.26,345.74,582.19Zm-68.42-42,1.86-2.5a88.63,88.63,0,0,0-7.49-6.78c-4.32-3.14-11-4.91-13-9-5.28-10.9-.66-24.08,8.86-31.82,2-1.62,4.4-4,4.66-6.29.67-5.72.22-11.57.22-17.43-19.32,5-37.8,29.24-37.19,48.48.43,13.69,9.6,23.94,23.26,25.26C264.74,540.65,271.06,540.15,277.32,540.15Zm340.94,3.19c-27.72-3.11-53.75-1.25-75.64,18,6.64,3.64,12.79,7.27,19.19,10.36,1.73.84,4.35.54,6.36,0,11.37-3.09,22.69-6.39,34-9.68,1.4-.41,3.17-.8,4-1.82C610.17,554.88,614,549.37,618.26,543.34Zm-279.32.37c-21.8-19.75-42.6-38.39-72.56-40.59-4.94,11.52-2.24,17.84,9.42,20.53,14.64,3.37,27.31,10.17,38.82,19.56a8.21,8.21,0,0,0,4.89,2C325.46,545,331.4,544.34,338.94,543.71ZM720.16,442.42c.53,11-1.74,19.95,4.8,28.95s6.13,19.52-1.54,29.08c-2.27,2.82-2.58,7.21-4,11.57,21.38-2.33,31.81-13.19,29-29.87S735.07,453.49,720.16,442.42ZM655.85,601.68c25.89,1.69,52.19-13.31,62.74-30.72-6.62,0-13.77-.15-20.91.07a29.89,29.89,0,0,0-8.59,1.57c-8.89,3-17.68,6.35-27.27,9.83C660.19,587.69,658.1,594.45,655.85,601.68ZM470,560.33c-26.75-12.18-53.13-15.32-80.34-.67,5.67,3.67,10.41,7,15.4,9.86,1.55.89,4.08,1.42,5.6.78,11.62-4.91,23.94-5.36,35.77-3.19C455.89,568.83,462.62,566,470,560.33ZM677.52,521.4c6.46,0,11.16.51,15.68-.2,2.54-.39,5.21-2.37,7.07-4.34,4.66-4.95,8.42-10.84,13.45-15.34,5.51-4.93,7.81-10.84,8.14-17.74.25-5.07-2.06-6.91-6.94-4.14-12.51,7.12-23.5,16-31.22,28.27C681.32,511.69,679.92,516.08,677.52,521.4Zm-76.28,46-30.18,9,10.12,24.91,26.87-5.24C605.62,585.82,603.61,577.34,601.24,567.38Zm-59.46,52.83c-4.16-5.61-7.29-9.79-10.38-14-2.85-3.91-22.24-6.71-25.85-3.65-.48.41-.61,1.24-.87,1.88-1.93,4.82-3.84,9.65-6.28,15.77ZM414.25,576.58c2.86,10.64,5.23,19.48,7.77,28.9l8.8,2.58c3.2-11.11,6.31-21.9,9.95-34.58Zm-43.06,32.06c-1-4.84-1.77-7.54-2.13-10.28-1.54-12-1.5-12.05-13.62-15-.85-.21-1.7-.37-.91-.2l-13.6,17.37Zm312.9-38.88c-5.79-4.59-9.44-7.7-13.36-10.43-1-.71-3-.63-4.32-.19-7.29,2.44-7.51,3.21-4.5,15.33Zm58.37-55.13c-5.89,1.76-13,3.2-19.33,6.14-2.21,1-2.84,5.74-3.81,8.88-.13.42,2.1,2.28,3.16,2.21C728.14,531.51,741.09,519.3,742.46,514.63ZM266.67,550.36l15.45,15.83c-1.37-6.74-2.43-12-3.49-17.2Z" transform="translate(-18.31 -6.38)"/><path class="cls-4" d="M542.42,553.29c-3.22-13.84-6.44-26.68-9-39.65-.41-2.05,1.5-5.63,3.41-6.91,27.78-18.63,39.91-48.75,33.07-79.25-7.6-33.87-36.48-55.33-67.22-58.2-32.56-3-63.91,14.25-76.67,43.16-16.24,36.81-3.26,73.57,26.58,93,4.28,2.78,5.52,5.45,4.16,10.1-2.8,9.56-5.38,19.19-8.17,29.24-15.09-3.14-29.71-3.1-44,.92-5.75,1.61-11.79,3.72-16.47,7.22s-7.92,2.27-12.56,1.19c-17.29-4-30.95-13-42.95-26.16-7.31-8-17.26-13.84-26.65-19.63-5.11-3.15-4.44-7.27-4.38-11.43.34-24.27.95-48.54,1.42-72.81.54-28.71,1.13-57.42,1.43-86.13,0-4.16,1.57-6.07,5-8.05,28.48-16.44,59.22-26.95,91-34.36,92-21.44,182.55-16.56,271.29,16.53,22.06,8.23,22,8.28,21.5,31.65-1,46-2,92-3.29,137.93-.11,3.94-2.58,8-4.53,11.67-4,7.52-8.63,14.7-12.46,22.29-2.07,4.1-3.92,6.85-9,8.31-11.36,3.22-22.26,8-33.42,12a24.82,24.82,0,0,1-8,1.32c-14,.14-28-.67-41.88.29C566.88,538.45,554.66,544.57,542.42,553.29Z" transform="translate(-18.31 -6.38)"/><path class="cls-4" d="M320.54,607.89c7.1-5.28,13.83-4.6,20.2-.06,9.26,6.61,20.09,7.57,30.76,9.3,1.67.27,3.78.85,4.75,2,10.58,13.14,25.14,19.56,40.55,24.79,3,1,5.32,3.89,8.23,5.37,3.76,1.92,7.77,4.65,11.71,4.7,34.77.48,69.55.48,104.33.54,20.07,0,23.5-4.1,20.2-23.36,11.19,0,22.53.86,33.67-.2a108.31,108.31,0,0,0,48.44-16.78,20.47,20.47,0,0,1,8.33-2.55c7.18-.87,14.42-1.34,22.28-2a62.2,62.2,0,0,1-1.67,6.09c-11.68,30.88-29,58.19-50.23,83.51C590.89,736.43,550.65,759,506,775.2a11.91,11.91,0,0,1-7.38.33c-40.2-14-78.49-31.78-109.46-61.8-29.25-28.34-52.53-61.06-67-99.54A57.23,57.23,0,0,1,320.54,607.89Z" transform="translate(-18.31 -6.38)"/><path class="cls-5" d="M496,593.31c-.22,19.47-12.64,33.51-29.9,40-27.48,10.32-53,5.14-76.61-11.54C379.18,614.5,377,603.6,375.49,591c11.73,6.59,22.32,12.7,33.07,18.53,16.74,9.07,34.32,13.24,52.4,4.9,5.76-2.65,10.2-8.37,14.92-13C481.53,595.89,488.44,594.19,496,593.31Z" transform="translate(-18.31 -6.38)"/><path class="cls-6" d="M716.74,538.15c-8.51,2.46-16.91,5.51-25.56,7.25-19.89,4-38.45,11-54.9,23-2.32,1.69-3.9,4.43-5.71,6.78-4.4,5.74-8.74,11.54-13.39,17.68-8.88-11.32-9.5-23.53-2.67-33.85,6.65-10,16.16-16.67,26.92-21.53,22.23-10,45.12-12.26,68.6-4.87,2.32.73,4.4,2.19,6.58,3.31C716.66,536.64,716.7,537.39,716.74,538.15Z" transform="translate(-18.31 -6.38)"/><path class="cls-7" d="M570.49,600.74c-6.6-2.77-12.48-4.89-18-7.64-26.27-12.94-52.26-13-78,1.43-2.37,1.33-4.25,3.52-6.46,5.18s-4.54,3.16-6.78,4.7c-9.1-10.18-8.76-19.25.85-28.1a45.69,45.69,0,0,1,29.21-11.94c25.79-1.27,50.51,2.71,72,18.57C569.58,587.62,570.79,590.75,570.49,600.74Z" transform="translate(-18.31 -6.38)"/><path class="cls-8" d="M535.73,592.61c4.94,2.34,9.92,4.62,14.83,7,22.34,11,44.82,11.42,67.27.56,9.07-4.39,16.6-11,20-20.62,2.56-7.35,7.87-10.33,14.8-13.17,3.54,14.93.91,28.13-10.38,37.79-22.83,19.54-49.52,25.74-78.68,18.36-14.69-3.72-23.52-14.65-29.26-28.11Z" transform="translate(-18.31 -6.38)"/><path class="cls-9" d="M679.63,554.44c9.32-2.55,18.11-4.85,26.82-7.37a87.81,87.81,0,0,0,31.9-16.61c16.86-13.87,18.22-32.35,16.72-51.92-.08-1.15-.5-2.27-.67-3.41a3.76,3.76,0,0,1,.28-1.31c13.9,5.73,20.7,17.34,18.48,31.5-6.14,39.05-42.9,58.83-70.72,58.46C693.71,563.67,686.5,560.7,679.63,554.44Z" transform="translate(-18.31 -6.38)"/><path class="cls-10" d="M412.2,601.26c-7.1-4.26-13.28-7.91-19.41-11.64-14.65-8.9-30-16.31-47.3-17.62-6.77-.52-13.75,1.25-20.6,2.17-6.39.87-12.73,2-18.84,3-4.81-12.8-1.29-20.84,10.59-22.88,9.05-1.57,18.74-2.47,27.7-1a132.79,132.79,0,0,1,53.55,21.06C406.8,580.43,410.93,587.86,412.2,601.26Z" transform="translate(-18.31 -6.38)"/><path class="cls-11" d="M345.74,582.19c-1.73,2.07-3.12,4.61-5.24,6.14-14,10.07-29.72,16.09-46.55,11.22-27.64-8-43.85-28.54-53.82-54.6a2.63,2.63,0,0,1,.1-1.42c5,1.83,10,3.34,14.77,5.59,2.31,1.11,4.3,3.34,5.9,5.47,11.56,15.35,25,27.8,45.31,29.65,4.56.42,9.28-.2,13.86-.8,8.21-1.06,16.38-2.46,24.57-3.72C345,580.55,345.37,581.37,345.74,582.19Z" transform="translate(-18.31 -6.38)"/><path class="cls-6" d="M277.32,540.15c-6.26,0-12.58.5-18.79-.11-13.66-1.32-22.83-11.57-23.26-25.26-.61-19.24,17.87-43.46,37.19-48.48,0,5.86.45,11.71-.22,17.43-.26,2.27-2.65,4.67-4.66,6.29-9.52,7.74-14.14,20.92-8.86,31.82,2,4.12,8.65,5.89,13,9a88.63,88.63,0,0,1,7.49,6.78Z" transform="translate(-18.31 -6.38)"/><path class="cls-8" d="M618.26,543.34c-4.3,6-8.09,11.54-12.14,16.85-.78,1-2.55,1.41-4,1.82-11.31,3.29-22.63,6.59-34,9.68-2,.55-4.63.85-6.36,0-6.4-3.09-12.55-6.72-19.19-10.36C564.51,542.09,590.54,540.23,618.26,543.34Z" transform="translate(-18.31 -6.38)"/><path class="cls-12" d="M338.94,543.71c-7.54.63-13.48,1.3-19.43,1.51a8.21,8.21,0,0,1-4.89-2c-11.51-9.39-24.18-16.19-38.82-19.56-11.66-2.69-14.36-9-9.42-20.53C296.34,505.32,317.14,524,338.94,543.71Z" transform="translate(-18.31 -6.38)"/><path class="cls-9" d="M720.16,442.42c14.91,11.07,25.34,23.05,28.19,39.73s-7.57,27.54-29,29.87c1.44-4.36,1.75-8.75,4-11.57,7.67-9.56,8.05-20.11,1.54-29.08S720.69,453.45,720.16,442.42Z" transform="translate(-18.31 -6.38)"/><path class="cls-13" d="M655.85,601.68c2.25-7.23,4.34-14,6-19.25,9.59-3.48,18.38-6.79,27.27-9.83a29.89,29.89,0,0,1,8.59-1.57c7.14-.22,14.29-.07,20.91-.07C708,588.37,681.74,603.37,655.85,601.68Z" transform="translate(-18.31 -6.38)"/><path class="cls-14" d="M470,560.33c-7.42,5.65-14.15,8.5-23.57,6.78-11.83-2.17-24.15-1.72-35.77,3.19-1.52.64-4.05.11-5.6-.78-5-2.88-9.73-6.19-15.4-9.86C416.91,545,443.29,548.15,470,560.33Z" transform="translate(-18.31 -6.38)"/><path class="cls-12" d="M677.52,521.4c2.4-5.32,3.8-9.71,6.18-13.49,7.72-12.31,18.71-21.15,31.22-28.27,4.88-2.77,7.19-.93,6.94,4.14-.33,6.9-2.63,12.81-8.14,17.74-5,4.5-8.79,10.39-13.45,15.34-1.86,2-4.53,3.95-7.07,4.34C688.68,521.91,684,521.4,677.52,521.4Z" transform="translate(-18.31 -6.38)"/><path class="cls-11" d="M601.24,567.38c2.37,10,4.38,18.44,6.81,28.68l-26.87,5.24-10.12-24.91Z" transform="translate(-18.31 -6.38)"/><path class="cls-8" d="M541.78,620.21H498.4c2.44-6.12,4.35-11,6.28-15.77.26-.64.39-1.47.87-1.88,3.61-3.06,23-.26,25.85,3.65C534.49,610.42,537.62,614.6,541.78,620.21Z" transform="translate(-18.31 -6.38)"/><path class="cls-15" d="M414.25,576.58l26.52-3.1c-3.64,12.68-6.75,23.47-9.95,34.58l-8.8-2.58C419.48,596.06,417.11,587.22,414.25,576.58Z" transform="translate(-18.31 -6.38)"/><path class="cls-16" d="M371.19,608.64l-30.26-8.07,13.6-17.37c-.79-.17.06,0,.91.2,12.12,2.91,12.08,2.92,13.62,15C369.42,601.1,370.17,603.8,371.19,608.64Z" transform="translate(-18.31 -6.38)"/><path class="cls-17" d="M684.09,569.76l-22.18,4.71c-3-12.12-2.79-12.89,4.5-15.33,1.31-.44,3.31-.52,4.32.19C674.65,562.06,678.3,565.17,684.09,569.76Z" transform="translate(-18.31 -6.38)"/><path class="cls-18" d="M742.46,514.63c-1.37,4.67-14.32,16.88-20,17.23-1.06.07-3.29-1.79-3.16-2.21,1-3.14,1.6-7.85,3.81-8.88C729.5,517.83,736.57,516.39,742.46,514.63Z" transform="translate(-18.31 -6.38)"/><path class="cls-19" d="M266.67,550.36l12-1.37c1.06,5.21,2.12,10.46,3.49,17.2Z" transform="translate(-18.31 -6.38)"/></svg>