<svg id="Слой_1" data-name="Слой 1" xmlns="http://www.w3.org/2000/svg" viewBox="0 0 693.45 697.15"><path d="M501,148.06c191.76.1,345.16,153.83,348.16,343.45,3.08,194.27-150.49,350.8-340.68,353.66-193.7,2.91-350.93-152.77-352.71-345.79C154,305.85,308.05,149.29,501,148.06ZM173.15,497.24c1,184.15,150.19,333.79,336.17,330.42,180.12-3.27,325.84-151.48,322.3-337-3.49-182.14-151.8-326.59-333.51-325C318.35,167.15,171.64,316.8,173.15,497.24Z" transform="translate(-155.74 -148.06)"/><path d="M628.46,429.28H378.89c.48-1.59.95-3.32,1.53-5,11.88-34,23.87-67.88,35.56-101.89,1.57-4.59,3.66-5.72,8.32-5.06,14.83,2.09,29.7,4.65,44.62,5.23,11,.42,22.16-1.7,33.19-3.18,26.9-3.6,53.76-7.45,80.63-11.3,3.63-.52,5.75.12,7.06,4.08,12.37,37.3,25,74.53,37.44,111.78C627.7,425.3,627.89,426.75,628.46,429.28Z" transform="translate(-155.74 -148.06)"/><path d="M273.38,518.3q123-52.32,256.68-46.15c66.65,3.18,131.33,15.79,192.72,42.71l-.12,1.4-449.2,3.48Z" transform="translate(-155.74 -148.06)"/><path d="M479.79,586.93c15.59-6.85,31.19-7.87,47.27,0,.78-1.73,1.51-3.33,2.23-4.94,13.41-29.54,42.94-45.46,74.18-40,29.48,5.17,53.33,32.29,55.66,63.31,2.65,35.1-17.34,65.9-49,75.52-38.81,11.78-80.17-15.17-86.2-56.17-.22-1.49-.46-3-.65-4.45-1.19-9.48-4.08-13.48-13.81-14.64-6.9-.83-14.1.7-21.15,1.34-2.81.26-3.52,2.09-3.57,4.91-.55,30.73-19.18,55.94-47.87,65-29.1,9.23-60.95-.84-78.62-24.85-29.61-40.21-5.68-97.56,44.21-106,31.62-5.32,61.21,9.54,75.74,38C478.66,585,479.17,585.81,479.79,586.93Zm162.56,25.41c-.45-3.79-.57-7.66-1.41-11.36-4.83-21-16.94-35.84-38.23-41.2-20.23-5.09-37.19,1.69-50.3,17.55-15.75,19.06-16.23,47.88-1.47,67.86,9.21,12.45,21.47,20,37.07,20.79C618,667.58,641.94,643.58,642.35,612.34Zm-175.59.44c.18-28-22.78-50.84-51.39-51-28.86-.18-52.09,22.4-52.21,50.75-.12,28.1,23.25,51.1,51.95,51.14C443.46,663.69,466.58,640.91,466.76,612.78Z" transform="translate(-155.74 -148.06)"/></svg>